<svg width="255" height="213" viewBox="0 0 255 213" fill="none" xmlns="http://www.w3.org/2000/svg">
<g clip-path="url(#clip0_101_2)">
<path d="M115.597 111.228C114.903 113.917 112.538 115.939 109.761 115.939L13.0238 115.939C5.83094 115.939 -3.14408e-07 121.77 0 128.963C3.14409e-07 136.155 5.83094 141.986 13.0238 141.986H111.15C113.122 141.986 114.804 143.412 115.259 145.33C115.876 147.935 114.06 150.55 111.387 150.697L38.4435 154.692C38.4393 154.692 38.4361 154.696 38.4363 154.7C38.4366 154.704 38.4333 154.708 38.4291 154.708C31.5346 155.043 26.0476 160.739 26.0476 167.716C26.0476 174.909 31.8786 180.74 39.0714 180.74C39.5315 180.74 39.9861 180.716 40.4339 180.669L130.103 175.758C130.68 175.726 131.238 175.962 131.626 176.39C132.655 177.527 132.054 179.395 130.543 179.653L85.5457 187.308C85.5418 187.308 85.5392 187.312 85.5398 187.316C85.5404 187.32 85.5378 187.323 85.534 187.324C79.5153 188.473 74.966 193.763 74.966 200.117C74.966 207.31 80.797 213.14 87.9898 213.14C88.7819 213.14 89.5574 213.07 90.3104 212.934C95.8169 212.259 128.208 207.857 158.439 203.748L158.455 203.746C170.364 202.127 181.937 200.554 191.399 199.273C226.982 195.594 254.731 165.519 254.731 128.962C254.731 101.739 239.342 78.1096 216.788 66.2997C197.543 54.8565 164.928 32.2241 156.053 12.2628C155.886 11.8886 155.77 11.5027 155.663 11.1072C153.945 4.70958 148.105 -3.03362e-07 141.164 0C132.874 3.62397e-07 126.153 6.72093 126.153 15.0116C126.153 15.9047 126.231 16.7796 126.38 17.6299C127.148 27.3053 131.593 37.8767 146.687 59.9795C149.016 63.3894 147.877 68.0737 144.458 70.3888C142.181 71.9303 140 73.601 137.923 75.3903C136.612 76.5196 134.956 77.1854 133.226 77.1854L31.6896 77.1854C24.4967 77.1854 18.6658 83.0164 18.6658 90.2092C18.6658 97.402 24.4967 103.233 31.6896 103.233L109.739 103.233C113.798 103.233 116.613 107.298 115.597 111.228Z" fill="#202020"/>
</g>
<defs>
<clipPath id="clip0_101_2">
<rect width="255" height="213" fill="white"/>
</clipPath>
</defs>
</svg>
